<svg width="20" height="20" viewBox="0 0 20 20" fill="none" xmlns="http://www.w3.org/2000/svg">
<path fill-rule="evenodd" clip-rule="evenodd" d="M20 18C20 19.1046 19.1046 20 18 20H2C1.46957 20 0.960861 19.7893 0.585789 19.4142C0.210716 19.0391 1.95372e-06 18.5304 1.90735e-06 18L3.33387e-06 10.5L0 2C0 0.895431 0.895432 0 2 0H8.5C9.25755 0 9.95007 0.428004 10.2889 1.10557L11.2361 3L11.5 3L18 3C19.1046 3 20 3.89543 20 5L20 18ZM8.5 2L9 3H2V2L4 2L8.5 2ZM2 10.5L2 5L10.618 5L11.5 5H16H18L18 7V14V18H16H4H2L2 14L2 10.5ZM13.2071 12.2071C13.5976 11.8166 13.5976 11.1834 13.2071 10.7929C12.8166 10.4024 12.1834 10.4024 11.7929 10.7929L11 11.5858V9C11 8.44771 10.5523 8 10 8C9.44772 8 9 8.44771 9 9V11.5858L8.20711 10.7929C7.81658 10.4024 7.18342 10.4024 6.79289 10.7929C6.40237 11.1834 6.40237 11.8166 6.79289 12.2071L9.29289 14.7071C9.48043 14.8946 9.73478 15 10 15C10.2652 15 10.5196 14.8946 10.7071 14.7071L13.2071 12.2071Z" fill="#3C4858"/>
</svg>
