<svg width="20" height="20" viewBox="0 0 20 20" fill="none" xmlns="http://www.w3.org/2000/svg">
<path fill-rule="evenodd" clip-rule="evenodd" d="M4.39179 10.285C4.78668 9.89888 5.41981 9.906 5.80592 10.3009C6.19203 10.6958 6.18492 11.3289 5.79003 11.715L3.4531 14L19 14C19.5523 14 20 14.4477 20 15C20 15.5523 19.5523 16 19 16L3.4531 16L5.79003 18.285C6.18492 18.6711 6.19203 19.3042 5.80592 19.6991C5.41981 20.094 4.78668 20.1011 4.39179 19.715L0.300882 15.715C0.108465 15.5269 5.64153e-08 15.2691 5.96244e-08 15C6.28335e-08 14.7309 0.108465 14.4731 0.300882 14.285L4.39179 10.285ZM15.6082 0.284994C15.2133 -0.101118 14.5802 -0.0940037 14.1941 0.300882C13.808 0.69577 13.8151 1.3289 14.21 1.71501L16.5469 4L1 4C0.447716 4 1.85459e-07 4.44771 1.78873e-07 5C1.72287e-07 5.55228 0.447716 6 1 6L16.5469 6L14.21 8.28499C13.8151 8.6711 13.808 9.30423 14.1941 9.69912C14.5802 10.094 15.2133 10.1011 15.6082 9.71501L19.6991 5.71501C19.8915 5.52687 20 5.26911 20 5C20 4.73089 19.8915 4.47313 19.6991 4.28499L15.6082 0.284994Z" fill="#3C4858"/>
</svg>
