<svg width="20" height="20" viewBox="0 0 20 20" fill="none" xmlns="http://www.w3.org/2000/svg">
<path fill-rule="evenodd" clip-rule="evenodd" d="M3 0H17C18.6569 0 20 1.34315 20 3V17C20 18.6569 18.6569 20 17 20H3C1.34315 20 0 18.6569 0 17V3C0 1.34315 1.34315 0 3 0ZM18 3C18 2.44772 17.5523 2 17 2H3C2.44771 2 2 2.44772 2 3V17C2 17.5523 2.44771 18 3 18H17C17.5523 18 18 17.5523 18 17V3ZM5.5 4C6.32843 4 7 4.67157 7 5.5V14.5C7 15.3284 6.32843 16 5.5 16C4.67157 16 4 15.3284 4 14.5V5.5C4 4.67157 4.67157 4 5.5 4ZM11.5 9.5C11.5 8.67157 10.8284 8 10 8C9.17157 8 8.5 8.67157 8.5 9.5V14.5C8.5 15.3284 9.17157 16 10 16C10.8284 16 11.5 15.3284 11.5 14.5V9.5ZM14.5 12C15.3284 12 16 12.6716 16 13.5V14.5C16 15.3284 15.3284 16 14.5 16C13.6716 16 13 15.3284 13 14.5V13.5C13 12.6716 13.6716 12 14.5 12Z" fill="#3C4858"/>
</svg>
