<svg width="20" height="18" viewBox="0 0 20 18" fill="none" xmlns="http://www.w3.org/2000/svg">
<path fill-rule="evenodd" clip-rule="evenodd" d="M4 6H6H8L12 6H14L16 6H18V8L14 8H6H2L2 6H4ZM13 10V11C13 11.5523 13.4477 12 14 12C14.5523 12 15 11.5523 15 11V10L18 10V14V16H16L4 16H2L2 14L2 9.99999L5 9.99999V11C5 11.5523 5.44772 12 6 12C6.55229 12 7 11.5523 7 11V9.99999L13 10ZM18 4L14 4V3C14 1.34315 12.6569 0 11 0H9C7.34315 0 6 1.34315 6 3V4H2C0.895429 4 0 4.89543 0 6V16C0 17.1046 0.89543 18 2 18L18 18C19.1046 18 20 17.1046 20 16V6C20 4.89543 19.1046 4 18 4ZM11 4H12V3C12 2.44795 11.5527 2.00038 11.0007 2L11 2L9 2L8.9993 2C8.44734 2.00038 8 2.44795 8 3V4H9L10 4H11Z" fill="#3C4858"/>
</svg>
