<svg width="20" height="20" viewBox="0 0 20 20" fill="none" xmlns="http://www.w3.org/2000/svg">
<path fill-rule="evenodd" clip-rule="evenodd" d="M8 1C8 0.447715 7.55228 0 7 0C6.44771 0 6 0.447715 6 1H3C1.34315 1 0 2.34315 0 4V17C0 18.6569 1.34315 20 3 20H17C18.6569 20 20 18.6569 20 17V4C20 2.34314 18.6569 1 17 1H14C14 0.447715 13.5523 0 13 0C12.4477 0 12 0.447715 12 1H8ZM12 3H8C8 3.55228 7.55228 4 7 4C6.44771 4 6 3.55228 6 3H3C2.44772 3 2 3.44772 2 4V6H18V4C18 3.44772 17.5523 3 17 3H14C14 3.55228 13.5523 4 13 4C12.4477 4 12 3.55228 12 3ZM2 8V17C2 17.5523 2.44772 18 3 18H17C17.5523 18 18 17.5523 18 17V8H2ZM5.5 9.5C4.67157 9.5 4 10.1716 4 11C4 11.8284 4.67157 12.5 5.5 12.5C6.32843 12.5 7 11.8284 7 11C7 10.1716 6.32843 9.5 5.5 9.5ZM8.5 11C8.5 10.1716 9.17157 9.5 10 9.5C10.8284 9.5 11.5 10.1716 11.5 11C11.5 11.8284 10.8284 12.5 10 12.5C9.17157 12.5 8.5 11.8284 8.5 11ZM14.5 9.5C13.6716 9.5 13 10.1716 13 11C13 11.8284 13.6716 12.5 14.5 12.5C15.3284 12.5 16 11.8284 16 11C16 10.1716 15.3284 9.5 14.5 9.5ZM13 15C13 14.1716 13.6716 13.5 14.5 13.5C15.3284 13.5 16 14.1716 16 15C16 15.8284 15.3284 16.5 14.5 16.5C13.6716 16.5 13 15.8284 13 15ZM5.5 13.5C4.67157 13.5 4 14.1716 4 15C4 15.8284 4.67157 16.5 5.5 16.5C6.32843 16.5 7 15.8284 7 15C7 14.1716 6.32843 13.5 5.5 13.5ZM8.5 15C8.5 14.1716 9.17157 13.5 10 13.5C10.8284 13.5 11.5 14.1716 11.5 15C11.5 15.8284 10.8284 16.5 10 16.5C9.17157 16.5 8.5 15.8284 8.5 15Z" fill="#3C4858"/>
</svg>
