<svg width="20" height="20" viewBox="0 0 20 20" fill="none" xmlns="http://www.w3.org/2000/svg">
<path fill-rule="evenodd" clip-rule="evenodd" d="M17 0H3C1.34315 0 0 1.34315 0 3V17C0 18.6569 1.34315 20 3 20H17C18.6569 20 20 18.6569 20 17V3C20 1.34315 18.6569 0 17 0ZM2 3C2 2.44772 2.44772 2 3 2H17C17.5523 2 18 2.44772 18 3V17C18 17.5523 17.5523 18 17 18H3C2.44772 18 2 17.5523 2 17V3ZM14.7372 7.67572C15.1103 7.26861 15.0828 6.63604 14.6757 6.26285C14.2686 5.88965 13.636 5.91716 13.2628 6.32428L8.53586 11.481L6.76822 9.35982C6.41466 8.93554 5.78409 8.87821 5.35982 9.23178C4.93554 9.58534 4.87821 10.2159 5.23178 10.6402L7.73178 13.6402C7.91649 13.8618 8.18795 13.9929 8.4764 13.9997C8.76485 14.0065 9.04219 13.8884 9.23715 13.6757L14.7372 7.67572Z" fill="#3C4858"/>
</svg>
