<svg fill="none" height="20" viewBox="0 0 20 20" width="20" xmlns="http://www.w3.org/2000/svg"><path clip-rule="evenodd" d="m0 10c0 5.5228 4.47715 10 10 10 5.5228 0 10-4.4772 10-10 0-5.52285-4.4772-10-10-10-5.52285 0-10 4.47715-10 10zm2 0c0-4.41828 3.58172-8 8-8 4.4183 0 8 3.58172 8 8 0 4.4183-3.5817 8-8 8-4.41828 0-8-3.5817-8-8zm12.7372-2.32428c.3731-.40711.3456-1.03968-.0615-1.41287-.4071-.3732-1.0397-.34569-1.4129.06143l-4.72694 5.15672-1.76764-2.12118c-.35356-.42428-.98413-.48161-1.4084-.12804-.42428.35356-.48161.98412-.12804 1.40842l2.5 3c.18471.2216.45617.3527.74462.3595s.56579-.1113.76075-.324z" fill="#3c4858" fill-rule="evenodd"/></svg>