<svg width="20" height="20" viewBox="0 0 20 20" fill="none" xmlns="http://www.w3.org/2000/svg">
<path fill-rule="evenodd" clip-rule="evenodd" d="M2.59289 3.64289C3.88915 2.34664 6.18385 1 9 1C11.8084 1 14.0544 2.29016 15.3571 3.59289C16.445 4.68078 17.5684 6.47193 17.9014 8.68437L18.2929 8.29289C18.6834 7.90237 19.3166 7.90237 19.7071 8.29289C20.0976 8.68342 20.0976 9.31658 19.7071 9.70711L17.7071 11.7071C17.3468 12.0674 16.7732 12.0992 16.3753 11.7809L13.8753 9.78087C13.444 9.43586 13.3741 8.80657 13.7191 8.37531C14.0641 7.94404 14.6934 7.87412 15.1247 8.21913L15.9003 8.83963C15.6144 7.18017 14.7596 5.82377 13.9429 5.00711C12.9494 4.01364 11.1916 3 9 3C6.81615 3 5.00705 4.05716 4.00711 5.05711C3.01364 6.05057 2 7.80838 2 10C2 12.1838 3.05716 13.9929 4.05711 14.9929C5.05057 15.9864 6.80838 17 9 17C9.55229 17 10 17.4477 10 18C10 18.5523 9.55229 19 9 19C6.19162 19 3.94562 17.7098 2.64289 16.4071C1.34664 15.1109 0 12.8162 0 10C0 7.19161 1.29016 4.94562 2.59289 3.64289ZM9 6.5C9 5.94772 8.55229 5.5 8 5.5C7.44772 5.5 7 5.94772 7 6.5V10.875C7 11.1634 7.12448 11.4377 7.3415 11.6276L10.3415 14.2526C10.7571 14.6163 11.3889 14.5741 11.7526 14.1585C12.1163 13.7429 12.0741 13.1111 11.6585 12.7474L9 10.4212V6.5Z" fill="#3C4858"/>
</svg>
