<svg fill="none" height="20" viewBox="0 0 20 20" width="20" xmlns="http://www.w3.org/2000/svg"><path clip-rule="evenodd" d="m18 2h-16v16h16zm-16-2c-1.104569 0-2 .895431-2 2v16c0 1.1046.895431 2 2 2h16c1.1046 0 2-.8954 2-2v-16c0-1.104569-.8954-2-2-2zm6.52145 6.14674c.47126.28799.61982.90348.33183 1.37473l-1.65037 2.70063 1.6035 2.1866c.3266.4453.23032 1.0711-.21505 1.3977-.44536.3266-1.07116.2304-1.39776-.215l-2.39651-3.268 2.34963-3.84483c.28799-.47125.90348-.61982 1.37473-.33183zm6.33185 1.37473c.288-.47125.1394-1.08674-.3318-1.37473-.4713-.28799-1.0868-.13942-1.3748.33183l-2.3496 3.84483 2.3965 3.268c.3266.4454.9524.5416 1.3978.215.4453-.3266.5416-.9524.215-1.3977l-1.6035-2.1866z" fill="#3c4858" fill-rule="evenodd"/></svg>