<svg width="20" height="18" viewBox="0 0 20 18" fill="none" xmlns="http://www.w3.org/2000/svg">
<path fill-rule="evenodd" clip-rule="evenodd" d="M0 15.5V2.5C0 1.11929 1.11929 0 2.5 0H3.5C4.88071 0 6 1.11929 6 2.5L6 15.5C6 16.8807 4.88071 18 3.5 18H2.5C1.11929 18 0 16.8807 0 15.5ZM2 15.5C2 15.7761 2.22386 16 2.5 16H3.5C3.77614 16 4 15.7761 4 15.5L4 2.5C4 2.22386 3.77614 2 3.5 2L2.5 2C2.22386 2 2 2.22386 2 2.5L2 15.5ZM7 15.5L7 2.5C7 1.11929 8.11929 0 9.5 0H10.5C11.8807 0 13 1.11929 13 2.5L13 15.5C13 16.8807 11.8807 18 10.5 18H9.5C8.11929 18 7 16.8807 7 15.5ZM9 15.5C9 15.7761 9.22386 16 9.5 16H10.5C10.7761 16 11 15.7761 11 15.5L11 2.5C11 2.22386 10.7761 2 10.5 2L9.5 2C9.22386 2 9 2.22386 9 2.5L9 15.5ZM14 2.5L14 15.5C14 16.8807 15.1193 18 16.5 18H17.5C18.8807 18 20 16.8807 20 15.5V2.5C20 1.11929 18.8807 0 17.5 0H16.5C15.1193 0 14 1.11929 14 2.5ZM16.5 16C16.2239 16 16 15.7761 16 15.5L16 2.5C16 2.22386 16.2239 2 16.5 2L17.5 2C17.7761 2 18 2.22386 18 2.5V15.5C18 15.7761 17.7761 16 17.5 16H16.5Z" fill="#3C4858"/>
</svg>
