<svg width="20" height="20" viewBox="0 0 20 20" fill="none" xmlns="http://www.w3.org/2000/svg">
<path fill-rule="evenodd" clip-rule="evenodd" d="M6.5 0H2.5C1.11929 0 0 1.11929 0 2.5V6.5C0 7.88071 1.11929 9 2.5 9H6.5C7.88071 9 9 7.88071 9 6.5V2.5C9 1.11929 7.88071 0 6.5 0ZM2 2.5C2 2.22386 2.22386 2 2.5 2H6.5C6.77614 2 7 2.22386 7 2.5V6.5C7 6.77614 6.77614 7 6.5 7H2.5C2.22386 7 2 6.77614 2 6.5V2.5ZM6.5 11H2.5C1.11929 11 0 12.1193 0 13.5V17.5C0 18.8807 1.11929 20 2.5 20H6.5C7.88071 20 9 18.8807 9 17.5V13.5C9 12.1193 7.88071 11 6.5 11ZM2 13.5C2 13.2239 2.22386 13 2.5 13H6.5C6.77614 13 7 13.2239 7 13.5V17.5C7 17.7761 6.77614 18 6.5 18H2.5C2.22386 18 2 17.7761 2 17.5V13.5ZM13.5 0H17.5C18.8807 0 20 1.11929 20 2.5V6.5C20 7.88071 18.8807 9 17.5 9H13.5C12.1193 9 11 7.88071 11 6.5V2.5C11 1.11929 12.1193 0 13.5 0ZM13.5 2C13.2239 2 13 2.22386 13 2.5V6.5C13 6.77614 13.2239 7 13.5 7H17.5C17.7761 7 18 6.77614 18 6.5V2.5C18 2.22386 17.7761 2 17.5 2H13.5ZM17.5 11H13.5C12.1193 11 11 12.1193 11 13.5V17.5C11 18.8807 12.1193 20 13.5 20H17.5C18.8807 20 20 18.8807 20 17.5V13.5C20 12.1193 18.8807 11 17.5 11ZM13 13.5C13 13.2239 13.2239 13 13.5 13H17.5C17.7761 13 18 13.2239 18 13.5V17.5C18 17.7761 17.7761 18 17.5 18H13.5C13.2239 18 13 17.7761 13 17.5V13.5Z" fill="#3C4858"/>
</svg>
