<svg width="18" height="20" viewBox="0 0 18 20" fill="none" xmlns="http://www.w3.org/2000/svg">
<path fill-rule="evenodd" clip-rule="evenodd" d="M0 17C1.96477e-06 18.6569 1.34315 20 3 20L15 20C16.6569 20 18 18.6569 18 17V10L18 6.37939C18 5.64611 17.7314 4.93822 17.245 4.38947L15.5969 2.53001L14.3143 1.04161C13.7444 0.38028 12.9147 0 12.0417 0H9H3C1.34315 0 0 1.34314 0 3V17ZM13 2.58022L14.0909 3.84616L15.1136 5H13V2.58022ZM11 2V6C11 6.55229 11.4477 7 12 7H16V10L16 17C16 17.5523 15.5523 18 15 18L3 18C2.44772 18 2 17.5523 2 17L2 3C2 2.44772 2.44772 2 3 2L9 2L11 2ZM11.7071 9.2929C12.0976 9.68342 12.0976 10.3166 11.7071 10.7071L10.4142 12L11.7071 13.2929C12.0976 13.6834 12.0976 14.3166 11.7071 14.7071C11.3166 15.0976 10.6834 15.0976 10.2929 14.7071L9 13.4142L7.70711 14.7071C7.31658 15.0976 6.68342 15.0976 6.29289 14.7071C5.90237 14.3166 5.90237 13.6834 6.29289 13.2929L7.58579 12L6.29289 10.7071C5.90237 10.3166 5.90237 9.68342 6.29289 9.2929C6.68342 8.90237 7.31658 8.90237 7.70711 9.2929L9 10.5858L10.2929 9.2929C10.6834 8.90237 11.3166 8.90237 11.7071 9.2929Z" fill="#3C4858"/>
</svg>
