<svg width="18" height="20" viewBox="0 0 18 20" fill="none" xmlns="http://www.w3.org/2000/svg">
<path fill-rule="evenodd" clip-rule="evenodd" d="M15 20L3 20C1.34315 20 1.96477e-06 18.6569 0 17V3C0 1.34314 1.34315 0 3 0H9H12.0417C12.9147 0 13.7444 0.38028 14.3143 1.04161L15.5969 2.53001L17.245 4.38947C17.7314 4.93822 18 5.64611 18 6.37939L18 10V17C18 18.6569 16.6569 20 15 20ZM14.0909 3.84616L13 2.58022V5H15.1136L14.0909 3.84616ZM11 6V2L9 2L3 2C2.44772 2 2 2.44772 2 3L2 17C2 17.5523 2.44772 18 3 18L15 18C15.5523 18 16 17.5523 16 17L16 10V7H12C11.4477 7 11 6.55229 11 6ZM5.5 12C5.5 11.4477 5.94772 11 6.5 11H11.5C12.0523 11 12.5 11.4477 12.5 12C12.5 12.5523 12.0523 13 11.5 13H6.5C5.94772 13 5.5 12.5523 5.5 12Z" fill="#3C4858"/>
</svg>
