<svg width="20" height="20" viewBox="0 0 20 20" fill="none" xmlns="http://www.w3.org/2000/svg">
<path fill-rule="evenodd" clip-rule="evenodd" d="M14.0012 0.997861C14.0012 0.446758 14.4489 0 15.0012 0L19.0012 1.78431e-07C19.2665 1.78431e-07 19.5209 0.105175 19.7084 0.292379C19.896 0.479583 20.0013 0.733474 20.0012 0.998178L19.9999 5.03248C19.9998 5.58359 19.5519 6.0302 18.9996 6.03003C18.4473 6.02985 17.9998 5.58295 17.9999 5.03185L18.0004 3.41785L13.7092 7.72924C13.3199 8.12009 12.6867 8.12197 12.295 7.73344C11.9033 7.34491 11.9014 6.7131 12.2908 6.32226L16.5971 1.99572H15.0012C14.4489 1.99572 14.0012 1.54896 14.0012 0.997861ZM7.70621 12.2666C8.0979 12.6551 8.09978 13.2869 7.71042 13.6777L3.4041 18.0043H5.00002C5.5523 18.0043 6.00002 18.451 6.00002 19.0021C6.00002 19.5532 5.5523 20 5.00002 20H1C0.734728 20 0.480326 19.8948 0.292781 19.7076C0.105235 19.5204 -8.429e-05 19.2665 5.06162e-08 19.0018L0.00128453 14.9675C0.00145995 14.4164 0.449317 13.9698 1.0016 13.97C1.55389 13.9701 2.00146 14.417 2.00128 14.9682L2.00077 16.5822L6.29201 12.2708C6.68137 11.8799 7.31453 11.878 7.70621 12.2666Z" fill="#3C4858"/>
</svg>
