<svg fill="none" height="20" viewBox="0 0 20 20" width="20" xmlns="http://www.w3.org/2000/svg"><path clip-rule="evenodd" d="m14.0012.997861c0-.551103.4477-.997861 1-.997861l4 .00000018c.2653 0 .5197.10517482.7072.29237882.1876.187204.2929.441095.2928.705799l-.0013 4.034302c-.0001.55111-.448.99772-1.0003.99755-.5523-.00018-.9998-.44708-.9997-.99818l.0005-1.614-4.2912 4.31139c-.3893.39085-1.0225.39273-1.4142.0042s-.3936-1.02034-.0042-1.41118l4.3063-4.32654h-1.5959c-.5523 0-1-.44676-1-.997859zm-6.29499 11.268739c.39169.3885.39357 1.0203.00421 1.4111l-4.30632 4.3266h1.59592c.55228 0 1 .4467 1 .9978s-.44772.9979-1 .9979h-4.00002c-.265272 0-.519674-.1052-.707219-.2924-.187546-.1872-.29286529-.4411-.29278095-.7058l.00128448-4.0343c.00017542-.5511.44803247-.9977 1.00031547-.9975.55229.0001.99986.447.99968.9982l-.00051 1.614 4.29124-4.3114c.38936-.3909 1.02252-.3928 1.4142-.0042z" fill="#3c4858" fill-rule="evenodd"/></svg>