<svg width="20" height="20" viewBox="0 0 20 20" fill="none" xmlns="http://www.w3.org/2000/svg">
<path fill-rule="evenodd" clip-rule="evenodd" d="M18.2929 0.292894C18.6834 -0.0976315 19.3166 -0.0976314 19.7071 0.292894C20.0976 0.683418 20.0976 1.31658 19.7071 1.70711L16.297 5.11721C16.7987 5.49865 17.2424 5.90337 17.6306 6.30586C18.4164 7.12085 18.9822 7.93352 19.3526 8.54352C19.5383 8.84937 19.6763 9.10672 19.7696 9.29133C19.8162 9.38371 19.8518 9.4581 19.8766 9.51151C19.889 9.53821 19.8987 9.5597 19.9058 9.57558L19.9144 9.59516L19.9173 9.60172L19.9183 9.60418L19.9188 9.6052C19.919 9.60565 19.9191 9.60608 19 10C19.9191 10.3939 19.919 10.3943 19.9188 10.3948L19.9183 10.3958L19.9173 10.3983L19.9144 10.4048L19.9058 10.4244C19.8987 10.4403 19.889 10.4618 19.8766 10.4885C19.8518 10.5419 19.8162 10.6163 19.7696 10.7087C19.6763 10.8933 19.5383 11.1506 19.3526 11.4565C18.9822 12.0665 18.4164 12.8792 17.6306 13.6941C16.0543 15.3288 13.5601 17 10 17C8.22417 17 6.71354 16.5842 5.44976 15.9645L1.70711 19.7071C1.31658 20.0976 0.683418 20.0976 0.292894 19.7071C-0.0976315 19.3166 -0.0976314 18.6834 0.292894 18.2929L18.2929 0.292894ZM6.96694 14.4473C7.84792 14.7884 8.85526 15 10 15C12.8685 15 14.8743 13.6712 16.1909 12.3059C16.8514 11.6208 17.3303 10.9335 17.643 10.4185C17.7392 10.26 17.8192 10.1187 17.8833 10C17.8192 9.88132 17.7392 9.74003 17.643 9.58148C17.3303 9.06648 16.8514 8.37915 16.1909 7.69414C15.809 7.29816 15.3692 6.90526 14.8672 6.54697L13.4462 7.96803C13.7981 8.56355 14 9.25819 14 10C14 12.2091 12.2091 14 10 14C9.25819 14 8.56355 13.7981 7.96803 13.4462L6.96694 14.4473ZM9.48196 11.9323C9.64718 11.9764 9.82084 12 10 12C11.1046 12 12 11.1046 12 10C12 9.82084 11.9764 9.64718 11.9323 9.48196L9.48196 11.9323ZM19 10L19.9191 10.3939C20.027 10.1424 20.027 9.85763 19.9191 9.60608L19 10ZM10 3C10.8982 3 11.7285 3.10637 12.4933 3.29169L10.7537 5.03135C10.5093 5.01076 10.2582 5 10 5C7.13149 5 5.12574 6.32877 3.80913 7.69414C3.14858 8.37915 2.6697 9.06648 2.35702 9.58148C2.26075 9.74003 2.18081 9.88132 2.11667 10C2.18081 10.1187 2.26075 10.26 2.35702 10.4185C2.64385 10.8909 3.07053 11.5084 3.649 12.136L2.23381 13.5512C1.51805 12.7848 0.99614 12.0308 0.647445 11.4565C0.461748 11.1506 0.323696 10.8933 0.230449 10.7087C0.183788 10.6163 0.148232 10.5419 0.123439 10.4885C0.111039 10.4618 0.10132 10.4403 0.0942391 10.4244L0.0855879 10.4048L0.0827339 10.3983L0.0816728 10.3958L0.0812335 10.3948C0.0810393 10.3943 0.0808549 10.3939 0.999792 10.0001L0.080855 10.3939C-0.0269517 10.1424 -0.0269517 9.85763 0.080855 9.60608L0.999792 9.99991C0.0808549 9.60608 0.0810393 9.60565 0.0812335 9.6052L0.0816728 9.60418L0.0827339 9.60172L0.0855879 9.59516L0.0942391 9.57558C0.10132 9.5597 0.111039 9.53821 0.123439 9.51151C0.148232 9.4581 0.183788 9.38371 0.230449 9.29133C0.323696 9.10672 0.461748 8.84937 0.647445 8.54352C1.0178 7.93352 1.58356 7.12085 2.36944 6.30586C3.94569 4.67123 6.43994 3 10 3ZM6.006 9.77901C6.11671 7.74581 7.74581 6.11671 9.779 6.006L6.006 9.77901Z" fill="#3C4858"/>
</svg>
