<svg width="18" height="21" viewBox="0 0 18 21" fill="none" xmlns="http://www.w3.org/2000/svg">
<path fill-rule="evenodd" clip-rule="evenodd" d="M16.9412 5.78223L10.9677 0.712686C9.8135 -0.266822 8.11042 -0.233004 6.99604 0.791543L0.969555 6.33226C0.351646 6.90036 0 7.70135 0 8.54072V17.0029C0 18.6597 1.34315 20.0029 3 20.0029H15C16.6569 20.0029 18 18.6597 18 17.0029V8.06955C18 7.18864 17.6128 6.35224 16.9412 5.78223ZM8.34967 2.26385C8.72113 1.92233 9.28883 1.91106 9.67355 2.23756L15.6471 7.30711C15.8709 7.49711 16 7.77591 16 8.06955V17.0029C16 17.5551 15.5523 18.0029 15 18.0029H13C13 18.0003 13 17.9977 13 17.9952V13.0298C13 11.9252 12.1046 11.0298 11 11.0298H7C5.89543 11.0298 5 11.9252 5 13.0298V17.9952C5 17.9977 5 18.0003 5.00001 18.0029H3C2.44772 18.0029 2 17.5552 2 17.0029V8.54072C2 8.26093 2.11722 7.99393 2.32319 7.80457L8.34967 2.26385ZM7 13.0298H11V17.9952H7V13.0298Z" fill="#3C4858"/>
</svg>
