<svg width="20" height="20" viewBox="0 0 20 20" fill="none" xmlns="http://www.w3.org/2000/svg">
<path fill-rule="evenodd" clip-rule="evenodd" d="M16 0H4C1.79086 0 0 1.79086 0 4V16C0 18.2091 1.79086 20 4 20H16C18.2091 20 20 18.2091 20 16V4C20 1.79086 18.2091 0 16 0ZM2 4C2 2.89543 2.89543 2 4 2H16C17.1046 2 18 2.89543 18 4V16C18 17.1046 17.1046 18 16 18H4C2.89543 18 2 17.1046 2 16V4ZM15.4543 6.8043C15.4024 6.54407 15.2492 6.31515 15.0284 6.16795C14.8076 6.02075 14.5373 5.96735 14.2772 6.0195L11.6456 6.54697C11.1041 6.65552 10.7531 7.18249 10.8616 7.724C10.9698 8.2639 11.494 8.61441 12.0338 8.50893L10.346 10.6797L8.23933 9.06741C7.8145 8.74228 7.20903 8.80909 6.86531 9.21902L4.23373 12.3575C3.87888 12.7807 3.93428 13.4114 4.35749 13.7663C4.78069 14.1211 5.41142 14.0657 5.76627 13.6425L7.78334 11.2369L9.91856 12.871C10.3548 13.2049 10.9786 13.1244 11.3158 12.6907L13.921 9.34007L14.0193 9.83307C14.1274 10.3747 14.6541 10.7261 15.1957 10.618C15.7373 10.5099 16.0887 9.98327 15.9807 9.44166L15.4543 6.8043Z" fill="#3C4858"/>
</svg>
