<svg width="14" height="20" viewBox="0 0 14 20" fill="none" xmlns="http://www.w3.org/2000/svg">
<path fill-rule="evenodd" clip-rule="evenodd" d="M9.17565 18V16.431C9.17565 16.2871 9.1786 16.1434 9.18447 16H4.59308C4.59561 16.0956 4.59688 16.1913 4.59688 16.287V18H9.17565ZM10.4823 11.3584C10.022 12.1895 9.67897 13.0789 9.46018 14H8.10402V10.7276L9.17713 8.43273C9.40996 7.93483 9.20548 7.33747 8.72043 7.09848C8.23538 6.85949 7.65342 7.06937 7.42059 7.56727L6.96162 8.54878L6.16685 7.4157C5.85247 6.9675 5.24365 6.86576 4.80701 7.18847C4.37038 7.51117 4.27127 8.13611 4.58564 8.5843L6.15561 10.8225V14H4.35278C4.16772 13.1435 3.87878 12.311 3.49062 11.5226L2.49958 9.50982C0.804685 6.06744 3.24188 2 6.99942 2C10.8659 2 13.2934 6.28326 11.3824 9.73341L10.4823 11.3584ZM6.99942 0C1.78979 0 -1.58924 5.63929 0.76064 10.412L1.75167 12.4248C2.34128 13.6223 2.64847 14.9453 2.64847 16.287V18.0732C2.64847 19.1373 3.48888 20 4.52557 20H9.37424C10.3406 20 11.1241 19.1958 11.1241 18.2039V16.431C11.1241 14.9991 11.4866 13.5917 12.1761 12.3469L13.0762 10.7219C15.7257 5.93851 12.36 0 6.99942 0Z" fill="#3C4858"/>
</svg>
