<svg width="20" height="10" viewBox="0 0 20 10" fill="none" xmlns="http://www.w3.org/2000/svg">
<path fill-rule="evenodd" clip-rule="evenodd" d="M2 5C2 6.65685 3.34315 8 5 8L7 8C7.55228 8 8 8.44771 8 9C8 9.55228 7.55228 10 7 10L5 10C2.23858 10 -9.78513e-08 7.76142 -2.18557e-07 5C-3.39263e-07 2.23858 2.23858 -9.78513e-08 5 -2.18557e-07L7 -3.0598e-07C7.55228 -3.30121e-07 8 0.447714 8 1C8 1.55228 7.55228 2 7 2L5 2C3.34315 2 2 3.34315 2 5ZM18 5C18 6.65685 16.6569 8 15 8L13 8C12.4477 8 12 8.44771 12 9C12 9.55228 12.4477 10 13 10L15 10C17.7614 10 20 7.76142 20 5C20 2.23858 17.7614 -7.76376e-07 15 -6.55671e-07L13 -5.68248e-07C12.4477 -5.44107e-07 12 0.447714 12 0.999999C12 1.55228 12.4477 2 13 2L15 2C16.6569 2 18 3.34315 18 5ZM6 4C5.44772 4 5 4.44772 5 5C5 5.55228 5.44772 6 6 6L14 6C14.5523 6 15 5.55228 15 5C15 4.44771 14.5523 4 14 4L6 4Z" fill="#3C4858"/>
</svg>
