<svg width="20" height="20" viewBox="0 0 20 20" fill="none" xmlns="http://www.w3.org/2000/svg">
<path fill-rule="evenodd" clip-rule="evenodd" d="M13.1956 4.29929C13.5826 3.90527 14.2158 3.89956 14.6098 4.28655L19.7007 9.28655C19.8922 9.47458 20 9.73166 20 10C20 10.2683 19.8922 10.5254 19.7007 10.7134L14.6098 15.7134C14.2158 16.1004 13.5826 16.0947 13.1956 15.7007C12.8087 15.3067 12.8144 14.6735 13.2084 14.2866L16.5547 11L8 11C7.44772 11 7 10.5523 7 10C7 9.44772 7.44772 9 8 9L16.5547 9L13.2084 5.71345C12.8144 5.32646 12.8087 4.69332 13.1956 4.29929Z" fill="#3C4858"/>
<path d="M11 2C11.5523 2 12 1.55228 12 1C12 0.447715 11.5523 0 11 0V2ZM1 1V0C0.447715 0 0 0.447715 0 1L1 1ZM1 19H0C0 19.5523 0.447715 20 1 20L1 19ZM11 20C11.5523 20 12 19.5523 12 19C12 18.4477 11.5523 18 11 18V20ZM11 0H1V2H11V0ZM0 1V19H2V1H0ZM1 20H11V18H1V20Z" fill="#3C4858"/>
</svg>
