<svg width="20" height="20" viewBox="0 0 20 20" fill="none" xmlns="http://www.w3.org/2000/svg">
<path fill-rule="evenodd" clip-rule="evenodd" d="M10 20C9.44771 20 9 19.5523 9 19V1C9 0.447716 9.44771 0 10 0C10.5523 0 11 0.447716 11 1V19C11 19.5523 10.5523 20 10 20ZM4.29289 7.29289C4.68342 6.90237 5.31658 6.90237 5.70711 7.29289L7.70711 9.29289C7.89464 9.48043 8 9.73479 8 10C8 10.2652 7.89464 10.5196 7.70711 10.7071L5.70711 12.7071C5.31658 13.0976 4.68342 13.0976 4.29289 12.7071C3.90237 12.3166 3.90237 11.6834 4.29289 11.2929L4.58579 11L1 11C0.447715 11 0 10.5523 0 10C0 9.44771 0.447715 9 1 9L4.58579 9L4.29289 8.70711C3.90237 8.31658 3.90237 7.68342 4.29289 7.29289ZM14.2929 7.29289C14.6834 6.90237 15.3166 6.90237 15.7071 7.29289C16.0976 7.68342 16.0976 8.31658 15.7071 8.70711L15.4142 9L19 9C19.5523 9 20 9.44771 20 10C20 10.5523 19.5523 11 19 11L15.4142 11L15.7071 11.2929C16.0976 11.6834 16.0976 12.3166 15.7071 12.7071C15.3166 13.0976 14.6834 13.0976 14.2929 12.7071L12.2929 10.7071C12.1054 10.5196 12 10.2652 12 10C12 9.73479 12.1054 9.48043 12.2929 9.29289L14.2929 7.29289Z" fill="#3C4858"/>
</svg>
