<svg width="20" height="20" viewBox="0 0 20 20" fill="none" xmlns="http://www.w3.org/2000/svg">
<path fill-rule="evenodd" clip-rule="evenodd" d="M11 0H9C7.34315 0 6 1.34315 6 3C6 4.65685 7.34315 6 9 6V9H6C4.34315 9 3 10.3431 3 12V14C1.34315 14 0 15.3431 0 17C0 18.6569 1.34315 20 3 20H5C6.65685 20 8 18.6569 8 17C8 15.3431 6.65685 14 5 14V12C5 11.4477 5.44772 11 6 11H10H14C14.5523 11 15 11.4477 15 12V14C13.3431 14 12 15.3431 12 17C12 18.6569 13.3431 20 15 20H17C18.6569 20 20 18.6569 20 17C20 15.3431 18.6569 14 17 14V12C17 10.3431 15.6569 9 14 9H11V6C12.6569 6 14 4.65685 14 3C14 1.34315 12.6569 0 11 0ZM16 16H15C14.4477 16 14 16.4477 14 17C14 17.5523 14.4477 18 15 18H17C17.5523 18 18 17.5523 18 17C18 16.4477 17.5523 16 17 16H16ZM3 16H4H5C5.55228 16 6 16.4477 6 17C6 17.5523 5.55228 18 5 18H3C2.44772 18 2 17.5523 2 17C2 16.4477 2.44772 16 3 16ZM10 4H11C11.5523 4 12 3.55228 12 3C12 2.44772 11.5523 2 11 2H9C8.44771 2 8 2.44772 8 3C8 3.55228 8.44771 4 9 4H10Z" fill="#3C4858"/>
</svg>
