<svg width="18" height="20" viewBox="0 0 18 20" fill="none" xmlns="http://www.w3.org/2000/svg">
<path fill-rule="evenodd" clip-rule="evenodd" d="M10.2526 14.6585C9.88889 15.0741 9.25713 15.1163 8.84149 14.7526C8.42586 14.3889 8.38374 13.7571 8.74742 13.3415L10.7962 11L0.999999 11C0.447715 11 -4.61255e-07 10.5523 -4.37114e-07 10C-4.12973e-07 9.44771 0.447715 9 0.999999 9L10.7962 9L8.74742 6.65851C8.38374 6.24287 8.42586 5.61111 8.84149 5.24742C9.25713 4.88374 9.88889 4.92586 10.2526 5.3415L13.7526 9.3415C14.0825 9.71852 14.0825 10.2815 13.7526 10.6585L10.2526 14.6585ZM13 2C12.4477 2 12 1.55229 12 1C12 0.447716 12.4477 5.44107e-07 13 5.68248e-07L16 6.99382e-07C17.1046 7.47664e-07 18 0.895431 18 2L18 18C18 19.1046 17.1046 20 16 20L13 20C12.4477 20 12 19.5523 12 19C12 18.4477 12.4477 18 13 18L16 18L16 2L13 2Z" fill="#3C4858"/>
</svg>
