<svg width="20" height="20" viewBox="0 0 20 20" fill="none" xmlns="http://www.w3.org/2000/svg">
<path fill-rule="evenodd" clip-rule="evenodd" d="M13.6099 0.58877C14.3949 -0.196257 15.6677 -0.196257 16.4527 0.58877L19.4112 3.54729C20.1963 4.33232 20.1963 5.6051 19.4112 6.39012L7.14172 18.6596C6.86229 18.9391 6.5067 19.1299 6.1194 19.2084L2.40932 19.96C1.74887 20.0937 1.0653 19.8877 0.588804 19.4112C0.112303 18.9347 -0.0937397 18.2511 0.0400497 17.5907L0.79161 13.8806C0.870067 13.4933 1.06094 13.1377 1.34036 12.8583L13.6099 0.58877ZM2.44348 15.851L2.57274 15.2129L4.78709 17.4273L4.14901 17.5565L2.01022 17.9898L2.44348 15.851ZM6.58059 16.3779L3.62208 13.4194L12.2516 4.78988L15.2101 7.7484L6.58059 16.3779ZM16.6315 6.32699L17.9898 4.96871L16.5684 3.54729L16.4527 3.43161L15.0313 2.01019L13.673 3.36847L16.6315 6.32699Z" fill="#3C4858"/>
</svg>
