<svg width="20" height="20" viewBox="0 0 20 20" fill="none" xmlns="http://www.w3.org/2000/svg">
<path fill-rule="evenodd" clip-rule="evenodd" d="M10 0C4.47716 5.72699e-06 0 4.47715 0 10C0 15.5228 4.47716 20 10 20C15.5228 20 20 15.5228 20 10C20 4.47715 15.5228 0 10 0ZM10 2C14.4183 2 18 5.58172 18 10C18 14.4183 14.4183 18 10 18C5.58172 18 2 14.4183 2 10C2 5.58172 5.58173 2 10 2ZM7 5.49998C6.17157 5.49998 5.5 6.17156 5.5 6.99998C5.5 7.82841 6.17157 8.49998 7 8.49998C7.82843 8.49998 8.5 7.82841 8.5 6.99998C8.5 6.17156 7.82843 5.49998 7 5.49998ZM13.7071 7.70709L7.70711 13.7071C7.31658 14.0976 6.68342 14.0976 6.29289 13.7071C5.90237 13.3166 5.90237 12.6834 6.29289 12.2929L12.2929 6.29288C12.6834 5.90235 13.3166 5.90235 13.7071 6.29288C14.0976 6.6834 14.0976 7.31657 13.7071 7.70709ZM11.5 13C11.5 12.1716 12.1716 11.5 13 11.5C13.8284 11.5 14.5 12.1716 14.5 13C14.5 13.8284 13.8284 14.5 13 14.5C12.1716 14.5 11.5 13.8284 11.5 13Z" fill="#3C4858"/>
</svg>
