<svg width="20" height="20" viewBox="0 0 20 20" fill="none" xmlns="http://www.w3.org/2000/svg">
<path fill-rule="evenodd" clip-rule="evenodd" d="M3 0H17C18.6569 0 20 1.34315 20 3V17C20 18.6569 18.6569 20 17 20H3C1.34315 20 0 18.6569 0 17V3C0 1.34315 1.34315 0 3 0ZM3 2C2.44772 2 2 2.44772 2 3V17C2 17.5523 2.44772 18 3 18H17C17.5523 18 18 17.5523 18 17V3C18 2.44772 17.5523 2 17 2H3ZM10.0005 4.75736C10.5527 4.75736 11.0005 5.20507 11.0005 5.75736V9H14.2426C14.7949 9 15.2426 9.44772 15.2426 10C15.2426 10.5523 14.7949 11 14.2426 11H11.0005V14.2426C11.0005 14.7949 10.5527 15.2426 10.0005 15.2426C9.44817 15.2426 9.00045 14.7949 9.00045 14.2426V11H5.75736C5.20507 11 4.75736 10.5523 4.75736 10C4.75736 9.44772 5.20507 9 5.75736 9H9.00045V5.75736C9.00045 5.20507 9.44817 4.75736 10.0005 4.75736Z" fill="#3C4858"/>
</svg>
