<svg width="20" height="20" viewBox="0 0 20 20" fill="none" xmlns="http://www.w3.org/2000/svg">
<path fill-rule="evenodd" clip-rule="evenodd" d="M9.99998 0.233154L19.6139 7.71066C20.0499 8.04973 20.1284 8.67801 19.7893 9.11396C19.4503 9.5499 18.822 9.62844 18.386 9.28937L9.99998 2.76688L1.61393 9.28937C1.17798 9.62844 0.549703 9.5499 0.210633 9.11396C-0.128437 8.67801 -0.0499029 8.04973 0.386044 7.71066L9.99998 0.233154ZM9.99998 5.23315L19.6139 12.7107C20.0499 13.0497 20.1284 13.678 19.7893 14.114C19.4503 14.5499 18.822 14.6284 18.386 14.2894L9.99998 7.76688L1.61393 14.2894C1.17798 14.6284 0.549703 14.5499 0.210633 14.114C-0.128437 13.678 -0.0499029 13.0497 0.386044 12.7107L9.99998 5.23315ZM19.6139 18.2107L9.99998 10.7332L0.386044 18.2107C-0.0499029 18.5497 -0.128437 19.178 0.210633 19.614C0.549703 20.0499 1.17798 20.1284 1.61393 19.7894L9.99998 13.2669L18.386 19.7894C18.822 20.1284 19.4503 20.0499 19.7893 19.614C20.1284 19.178 20.0499 18.5497 19.6139 18.2107Z" fill="#3C4858"/>
</svg>
