<svg width="20" height="20" viewBox="0 0 20 20" fill="none" xmlns="http://www.w3.org/2000/svg">
<path fill-rule="evenodd" clip-rule="evenodd" d="M19.6139 10.2107L9.99998 2.73315L0.386044 10.2107C-0.0499029 10.5497 -0.128437 11.178 0.210633 11.614C0.549703 12.0499 1.17798 12.1284 1.61393 11.7894L9.99998 5.26688L18.386 11.7894C18.822 12.1284 19.4503 12.0499 19.7893 11.614C20.1284 11.178 20.0499 10.5497 19.6139 10.2107ZM19.6139 15.7107L9.99998 8.23315L0.386044 15.7107C-0.0499029 16.0497 -0.128437 16.678 0.210633 17.114C0.549703 17.5499 1.17798 17.6284 1.61393 17.2894L9.99998 10.7669L18.386 17.2894C18.822 17.6284 19.4503 17.5499 19.7893 17.114C20.1284 16.678 20.0499 16.0497 19.6139 15.7107Z" fill="#3C4858"/>
</svg>
