<svg width="20" height="20" viewBox="0 0 20 20" fill="none" xmlns="http://www.w3.org/2000/svg">
<path fill-rule="evenodd" clip-rule="evenodd" d="M4 3.5C4 1.567 5.567 0 7.5 0C9.433 0 11 1.567 11 3.5V4H14C15.1046 4 16 4.89543 16 6V8C18.2091 8 20 9.79086 20 12C20 14.2091 18.2091 16 16 16V18C16 19.1046 15.1046 20 14 20H2C0.895431 20 0 19.1046 0 18V15.0418C0 14.4664 0.466431 14 1.0418 14H2.72222C3.55065 14 4.22222 13.3284 4.22222 12.5C4.22222 11.6716 3.55065 11 2.72222 11H1.0418C0.466427 11 0 10.5336 0 9.9582V6C0 4.89543 0.89543 4 2 4H4V3.5ZM7.5 2C6.67157 2 6 2.67157 6 3.5V4.9604C6 5.53455 5.53455 6 4.9604 6H2V9H2.72222C4.65522 9 6.22222 10.567 6.22222 12.5C6.22222 14.433 4.65522 16 2.72222 16H2V18H14L14 15.0396C14 14.4654 14.4654 14 15.0396 14H16C17.1046 14 18 13.1046 18 12C18 10.8954 17.1046 10 16 10H15.0396C14.4654 10 14 9.53455 14 8.9604V6H10.0396C9.46546 6 9 5.53456 9 4.9604V3.5C9 2.67157 8.32843 2 7.5 2Z" fill="#3C4858"/>
</svg>
