<svg width="18" height="20" viewBox="0 0 18 20" fill="none" xmlns="http://www.w3.org/2000/svg">
<path fill-rule="evenodd" clip-rule="evenodd" d="M3 17L4 17C4 18.6569 5.34315 20 7 20H15C16.6569 20 18 18.6569 18 17V6C18 4.34315 16.6569 3 15 3C15 1.34315 13.6569 0 12 0H3C1.34315 0 1.90735e-06 1.34315 1.90735e-06 3L0 14C0 15.6569 1.34315 17 3 17ZM5 15L5.00154 15L12 15C12.5523 15 13 14.5523 13 14L13 4V3C13 2.44772 12.5523 2 12 2L3 2C2.44772 2 2 2.44771 2 3L2 14C2 14.5523 2.44772 15 3 15H4.99846L5 15ZM16 6C16 5.44772 15.5523 5 15 5L15 14C15 15.6569 13.6569 17 12 17L6 17C6 17.5523 6.44772 18 7 18H15C15.5523 18 16 17.5523 16 17V6ZM10 4C10.5523 4 11 4.44772 11 5C11 5.55229 10.5523 6 10 6H5C4.44772 6 4 5.55229 4 5C4 4.44772 4.44772 4 5 4H10ZM11 8.5C11 7.94772 10.5523 7.5 10 7.5H5C4.44772 7.5 4 7.94772 4 8.5C4 9.05229 4.44772 9.5 5 9.5H10C10.5523 9.5 11 9.05229 11 8.5ZM10 11C10.5523 11 11 11.4477 11 12C11 12.5523 10.5523 13 10 13H5C4.44772 13 4 12.5523 4 12C4 11.4477 4.44772 11 5 11H10Z" fill="#3C4858"/>
</svg>
