<svg width="20" height="20" viewBox="0 0 20 20" fill="none" xmlns="http://www.w3.org/2000/svg">
<path fill-rule="evenodd" clip-rule="evenodd" d="M12.7868 11.6181C13.5483 10.6122 14 9.35886 14 8C14 4.68629 11.3137 2 8 2C4.68629 2 2 4.68629 2 8C2 9.35887 2.45173 10.6122 3.21322 11.6181C3.25595 11.448 3.30697 11.2744 3.36782 11.1C3.61438 10.3932 4.04117 9.61818 4.79464 9.01342C5.01115 8.83964 5.24959 8.68406 5.5105 8.55002C4.98561 7.96096 4.66667 7.18439 4.66667 6.33333C4.66667 4.49238 6.15905 3 8 3C9.84095 3 11.3333 4.49238 11.3333 6.33333C11.3333 7.18439 11.0144 7.96095 10.4895 8.55001C10.7504 8.68406 10.9889 8.83964 11.2054 9.01342C11.9589 9.61819 12.3857 10.3932 12.6322 11.1C12.693 11.2744 12.7441 11.4479 12.7868 11.6181ZM11.0033 13.1954C11.0021 13.1604 11.0006 13.1241 10.9988 13.0867C10.9774 12.6585 10.9065 12.1055 10.7185 11.5666C10.529 11.0234 10.2394 10.5485 9.8249 10.2157C9.43536 9.90306 8.87798 9.66787 8.00681 9.66666L8 9.66667L7.99321 9.66666C7.12205 9.66788 6.56468 9.90306 6.17514 10.2157C5.76059 10.5485 5.47099 11.0234 5.28149 11.5666C5.09351 12.1055 5.02258 12.6585 5.00123 13.0867C4.99937 13.1241 4.99789 13.1604 4.99675 13.1954C5.88 13.7071 6.9058 14 8 14C9.09421 14 10.12 13.7071 11.0033 13.1954ZM8 16C9.05435 16 10.0611 15.796 10.9828 15.4254C11.0886 15.6833 11.2481 15.9189 11.454 16.1149L14.954 19.4483C15.7401 20.1969 16.9799 20.1818 17.7475 19.4142L19.4142 17.7475C19.7952 17.3665 20.0064 16.8478 19.9998 16.3089C19.9933 15.7701 19.7695 15.2567 19.3793 14.8851L15.8793 11.5517C15.7165 11.3967 15.5344 11.2745 15.3409 11.1848C15.7649 10.2089 16 9.13191 16 8C16 3.58172 12.4183 0 8 0C3.58172 0 0 3.58172 0 8C0 12.4183 3.58172 16 8 16ZM16.3333 18L12.8333 14.6667L14.5 13L18 16.3333L16.3333 18ZM8 8C8.92048 8 9.66667 7.25381 9.66667 6.33333C9.66667 5.41286 8.92048 4.66667 8 4.66667C7.07953 4.66667 6.33333 5.41286 6.33333 6.33333C6.33333 7.25381 7.07953 8 8 8Z" fill="#3C4858"/>
</svg>
