<svg width="20" height="21" viewBox="0 0 20 21" fill="none" xmlns="http://www.w3.org/2000/svg">
<path fill-rule="evenodd" clip-rule="evenodd" d="M9.23077 19.7532C8.97754 19.7165 8.66468 19.6734 8.31722 19.6303C7.40829 19.5174 6.28955 19.4082 5.38461 19.4082C4.47968 19.4082 3.36094 19.5174 2.45201 19.6303C2.00106 19.6862 1.60839 19.7422 1.32873 19.7842C1.18899 19.8051 1.07769 19.8226 1.0017 19.8347L0.915128 19.8487L0.893353 19.8522L0 20.0019V1.24865L0.400655 1.01171L0.401836 1.01101L0.403161 1.01024L0.406242 1.00843L0.414131 1.00388L0.436814 0.991109C0.455004 0.981024 0.479332 0.967872 0.509799 0.952107C0.570732 0.920576 0.656212 0.878596 0.766235 0.829796C0.986315 0.732182 1.30444 0.607353 1.72053 0.48432C2.55334 0.238063 3.77526 0 5.38461 0C6.99397 0 8.21589 0.238063 9.0487 0.48432C9.46291 0.606796 9.78004 0.731053 10 0.82847C10.22 0.731053 10.5371 0.606796 10.9513 0.48432C11.7841 0.238063 13.006 0 14.6154 0C16.2247 0 17.4467 0.238063 18.2795 0.48432C18.6956 0.607353 19.0137 0.732182 19.2338 0.829796C19.3438 0.878596 19.4293 0.920576 19.4902 0.952107C19.5207 0.967872 19.545 0.981024 19.5632 0.991109L19.7411 1.09556L19.5993 1.01171L19.5968 1.01024L19.5982 1.01101C19.5982 1.01101 19.5968 1.01024 19.5993 1.01171L20 1.24865V20.0019L19.1066 19.8522L19.0849 19.8487L18.9983 19.8347C18.9223 19.8226 18.811 19.8051 18.6713 19.7842C18.3916 19.7422 17.9989 19.6862 17.548 19.6303C16.6391 19.5174 15.5203 19.4082 14.6154 19.4082C13.7105 19.4082 12.5917 19.5174 11.6828 19.6303C11.3353 19.6734 11.0225 19.7165 10.7692 19.7532V20.0019L10 19.873L9.23077 20.0019V19.7532ZM1.53846 18.0722V2.29299C1.69103 2.23262 1.88674 2.16281 2.12563 2.09217C2.83127 1.88352 3.91705 1.66667 5.38461 1.66667C6.85218 1.66667 7.93796 1.88352 8.6436 2.09217C8.88249 2.16281 9.0782 2.23262 9.23077 2.29299V18.0722C9.01225 18.0415 8.76248 18.0079 8.49233 17.9744C7.56855 17.8598 6.3796 17.7415 5.38461 17.7415C4.38963 17.7415 3.20068 17.8598 2.2769 17.9744C2.00676 18.0079 1.75698 18.0415 1.53846 18.0722ZM10.7692 18.0722C10.9878 18.0415 11.2375 18.0079 11.5077 17.9744C12.4315 17.8598 13.6204 17.7415 14.6154 17.7415C15.6104 17.7415 16.7993 17.8598 17.7231 17.9744C17.9932 18.0079 18.243 18.0415 18.4615 18.0722V2.29299C18.309 2.23262 18.1133 2.16281 17.8744 2.09217C17.1687 1.88352 16.083 1.66667 14.6154 1.66667C13.1478 1.66667 12.062 1.88352 11.3564 2.09217C11.1175 2.16281 10.9218 2.23262 10.7692 2.29299V18.0722Z" fill="#3C4858"/>
</svg>
