<svg width="20" height="18" viewBox="0 0 20 18" fill="none" xmlns="http://www.w3.org/2000/svg">
<path fill-rule="evenodd" clip-rule="evenodd" d="M5.15851 0.247437C4.74287 -0.116245 4.11111 -0.0741277 3.74743 0.341509L0.247423 4.34151C-0.0824738 4.71853 -0.0824738 5.28149 0.247423 5.65852L3.74743 9.65852C4.11111 10.0742 4.74287 10.1163 5.15851 9.75259C5.57414 9.38891 5.61626 8.75714 5.25258 8.34151L3.20377 6.00001L13 6.00001C15.7614 6.00001 18 8.23859 18 11C18 13.7614 15.7614 16 13 16L4.5 16C3.94772 16 3.5 16.4477 3.5 17C3.5 17.5523 3.94772 18 4.5 18L13 18C16.866 18 20 14.866 20 11C20 7.13402 16.866 4.00001 13 4.00001L3.20377 4.00001L5.25258 1.65852C5.61626 1.24288 5.57414 0.611119 5.15851 0.247437Z" fill="#3C4858"/>
</svg>
