<svg width="20" height="20" viewBox="0 0 20 20" fill="none" xmlns="http://www.w3.org/2000/svg">
<path fill-rule="evenodd" clip-rule="evenodd" d="M8.31952 0.325437C8.74555 -0.108479 9.43627 -0.108479 9.8623 0.325437L19.6805 9.21433C20.1065 9.64824 20.1065 10.3518 19.6805 10.7857L9.8623 19.6746C9.43627 20.1085 8.74555 20.1085 8.31952 19.6746C7.89349 19.2406 7.89349 18.5371 8.31952 18.1032L17.3663 10L8.31952 1.89679C7.89349 1.46287 7.89349 0.759353 8.31952 0.325437Z" fill="#3C4858"/>
<path fill-rule="evenodd" clip-rule="evenodd" d="M1.31952 0.325437C1.74555 -0.108479 2.43627 -0.108479 2.8623 0.325437L12.6805 9.21433C13.1065 9.64824 13.1065 10.3518 12.6805 10.7857L2.8623 19.6746C2.43627 20.1085 1.74555 20.1085 1.31952 19.6746C0.893493 19.2406 0.893493 18.5371 1.31952 18.1032L10.3663 10L1.31952 1.89679C0.893493 1.46287 0.893493 0.759353 1.31952 0.325437Z" fill="#3C4858"/>
</svg>
