<svg width="20" height="20" viewBox="0 0 20 20" fill="none" xmlns="http://www.w3.org/2000/svg">
<path fill-rule="evenodd" clip-rule="evenodd" d="M11.6805 19.6746C11.2545 20.1085 10.5637 20.1085 10.1377 19.6746L0.31952 10.7857C-0.106507 10.3518 -0.106507 9.64824 0.31952 9.21433L10.1377 0.325435C10.5637 -0.10848 11.2545 -0.10848 11.6805 0.325435C12.1065 0.759353 12.1065 1.46287 11.6805 1.89678L2.63369 10L11.6805 18.1032C12.1065 18.5371 12.1065 19.2406 11.6805 19.6746Z" fill="#3C4858"/>
<path fill-rule="evenodd" clip-rule="evenodd" d="M18.6805 19.6746C18.2545 20.1085 17.5637 20.1085 17.1377 19.6746L7.31952 10.7857C6.89349 10.3518 6.89349 9.64824 7.31952 9.21433L17.1377 0.325435C17.5637 -0.10848 18.2545 -0.10848 18.6805 0.325435C19.1065 0.759353 19.1065 1.46287 18.6805 1.89678L9.63369 10L18.6805 18.1032C19.1065 18.5371 19.1065 19.2406 18.6805 19.6746Z" fill="#3C4858"/>
</svg>
