<svg width="20" height="20" viewBox="0 0 20 20" fill="none" xmlns="http://www.w3.org/2000/svg">
<path fill-rule="evenodd" clip-rule="evenodd" d="M10.0001 0C10.7212 0 11.3865 0.388209 11.7413 1.01602L14.1766 5.32553L18.3841 6.14867C19.117 6.29206 19.709 6.83192 19.9192 7.54861C20.1294 8.2653 19.9228 9.03939 19.3833 9.55595L16.1832 12.6204L16.9235 17.7122C17.0309 18.4509 16.7181 19.1878 16.1121 19.6237C15.5062 20.0595 14.708 20.1216 14.0419 19.7848L10.0001 17.7411L5.95825 19.7848C5.29216 20.1216 4.49395 20.0595 3.888 19.6237C3.28205 19.1878 2.9692 18.4509 3.07659 17.7122L3.81689 12.6204L0.616788 9.55595C0.0773606 9.03939 -0.129298 8.2653 0.0808884 7.54861C0.291075 6.83192 0.883081 6.29206 1.61606 6.14867L5.8235 5.32553L8.25885 1.01602C8.61364 0.388209 9.27893 0 10.0001 0ZM7.11151 7.11146L2.00006 8.11146L5.94433 11.8885L5.05578 18L10.0001 15.5L14.9443 18L14.0558 11.8885L18.0001 8.11146L12.8886 7.11146L10.0001 2L7.11151 7.11146Z" fill="#3C4858"/>
</svg>
