<svg width="20" height="20" viewBox="0 0 20 20" fill="none" xmlns="http://www.w3.org/2000/svg">
<path fill-rule="evenodd" clip-rule="evenodd" d="M20 18C20 19.1046 19.1046 20 18 20H2C1.46957 20 0.960861 19.7893 0.585789 19.4142C0.210716 19.0391 1.95372e-06 18.5304 1.90735e-06 18L3.33387e-06 10.5L0 2C0 0.895431 0.895432 0 2 0H8.5C9.25755 0 9.95007 0.428004 10.2889 1.10557L11.2361 3L11.5 3L18 3C19.1046 3 20 3.89543 20 5L20 18ZM9 3L8.5 2L4 2L2 2V3H9ZM2 5L2 10.5L2 14L2 18H4H16H18V14V7L18 5H16H11.5L10.618 5L2 5ZM12.7071 10.7929L10.2071 8.29289C10.0196 8.10536 9.76522 8 9.5 8C9.23478 8 8.98043 8.10536 8.79289 8.29289L6.29289 10.7929C5.90237 11.1834 5.90237 11.8166 6.29289 12.2071C6.68342 12.5976 7.31658 12.5976 7.70711 12.2071L8.5 11.4142V14C8.5 14.5523 8.94772 15 9.5 15C10.0523 15 10.5 14.5523 10.5 14V11.4142L11.2929 12.2071C11.6834 12.5976 12.3166 12.5976 12.7071 12.2071C13.0976 11.8166 13.0976 11.1834 12.7071 10.7929Z" fill="#3C4858"/>
</svg>
