<svg width="20" height="20" viewBox="0 0 20 20" fill="none" xmlns="http://www.w3.org/2000/svg">
<path fill-rule="evenodd" clip-rule="evenodd" d="M10 20C9.44771 20 9 19.5523 9 19V1C9 0.447716 9.44771 0 10 0C10.5523 0 11 0.447716 11 1V19C11 19.5523 10.5523 20 10 20ZM3.70711 7.29289C3.31658 6.90237 2.68342 6.90237 2.29289 7.29289L0.292894 9.29289C0.105357 9.48043 0 9.73479 0 10C0 10.2652 0.105357 10.5196 0.292894 10.7071L2.29289 12.7071C2.68342 13.0976 3.31658 13.0976 3.70711 12.7071C4.09763 12.3166 4.09763 11.6834 3.70711 11.2929L3.41421 11L7 11C7.55229 11 8 10.5523 8 10C8 9.44771 7.55228 9 7 9L3.41421 9L3.70711 8.70711C4.09763 8.31658 4.09763 7.68342 3.70711 7.29289ZM17.7071 7.29289C17.3166 6.90237 16.6834 6.90237 16.2929 7.29289C15.9024 7.68342 15.9024 8.31658 16.2929 8.70711L16.5858 9L13 9C12.4477 9 12 9.44771 12 10C12 10.5523 12.4477 11 13 11L16.5858 11L16.2929 11.2929C15.9024 11.6834 15.9024 12.3166 16.2929 12.7071C16.6834 13.0976 17.3166 13.0976 17.7071 12.7071L19.7071 10.7071C19.8946 10.5196 20 10.2652 20 10C20 9.73479 19.8946 9.48043 19.7071 9.29289L17.7071 7.29289Z" fill="#3C4858"/>
</svg>
