<svg width="20" height="20" viewBox="0 0 20 20" fill="none" xmlns="http://www.w3.org/2000/svg">
<path fill-rule="evenodd" clip-rule="evenodd" d="M2 3C2 2.44772 2.44772 2 3 2H17C17.5523 2 18 2.44772 18 3V17C18 17.5523 17.5523 18 17 18L15 18V16C15 14.2759 14.1274 12.7557 12.7998 11.8568C13.5405 11.1308 14 10.1191 14 9C14 6.79086 12.2091 5 10 5C7.79086 5 6 6.79086 6 9C6 10.1191 6.45955 11.1308 7.20022 11.8568C5.87259 12.7557 5 14.2759 5 16V18L3 18C2.44772 18 2 17.5523 2 17V3ZM7 18H13V16C13 14.3431 11.6569 13 10 13C8.34315 13 7 14.3431 7 16V18ZM3 0C1.34315 0 0 1.34315 0 3V17C0 18.6569 1.34315 20 3 20H17C18.6569 20 20 18.6569 20 17V3C20 1.34315 18.6569 0 17 0H3ZM8 9C8 10.1046 8.89543 11 10 11C11.1046 11 12 10.1046 12 9C12 7.89543 11.1046 7 10 7C8.89543 7 8 7.89543 8 9Z" fill="#3C4858"/>
</svg>
