<svg width="20" height="20" viewBox="0 0 20 20" fill="none" xmlns="http://www.w3.org/2000/svg">
<path fill-rule="evenodd" clip-rule="evenodd" d="M10 20C4.47715 20 0 15.5228 0 10C0 4.47715 4.47715 0 10 0C15.5228 0 20 4.47715 20 10C20 15.5228 15.5228 20 10 20ZM10 2C5.58172 2 2 5.58172 2 10C2 12.5264 3.17108 14.7793 5 16.2454V15.8571C5 14.1725 5.85766 12.6882 7.16016 11.817C6.44301 11.094 6 10.0988 6 9C6 6.79086 7.79086 5 10 5C12.2091 5 14 6.79086 14 9C14 10.0988 13.557 11.094 12.8398 11.817C14.1423 12.6882 15 14.1725 15 15.8571V16.2454C16.8289 14.7793 18 12.5264 18 10C18 5.58172 14.4183 2 10 2ZM13 17.4185V15.8571C13 14.2792 11.7208 13 10.1429 13H10H9.85714C8.27919 13 7 14.2792 7 15.8571V17.4185C7.92643 17.7935 8.9391 18 10 18C11.0609 18 12.0736 17.7935 13 17.4185ZM10 11C11.1046 11 12 10.1046 12 9C12 7.89543 11.1046 7 10 7C8.89543 7 8 7.89543 8 9C8 10.1046 8.89543 11 10 11Z" fill="#3C4858"/>
</svg>
