<svg width="20" height="20" viewBox="0 0 20 20" fill="none" xmlns="http://www.w3.org/2000/svg">
<path fill-rule="evenodd" clip-rule="evenodd" d="M2.5 1.66667H17.5C17.9602 1.66667 18.3333 2.03976 18.3333 2.5V17.5C18.3333 17.9602 17.9602 18.3333 17.5 18.3333H2.5C2.03976 18.3333 1.66667 17.9602 1.66667 17.5V2.5C1.66667 2.03976 2.03976 1.66667 2.5 1.66667ZM0 2.5C0 1.11929 1.11929 0 2.5 0H17.5C18.8807 0 20 1.11929 20 2.5V17.5C20 18.8807 18.8807 20 17.5 20H2.5C1.11929 20 0 18.8807 0 17.5V2.5ZM7.0714 5.10489L5.83337 4.41709V5.83335V14.1667V15.5829L7.0714 14.8951L14.5714 10.7285L15.8826 10L14.5714 9.27155L7.0714 5.10489ZM12.4508 10L7.50003 12.7504V7.24961L12.4508 10Z" fill="#3C4858"/>
</svg>
