<svg width="20" height="14" viewBox="0 0 20 14" fill="none" xmlns="http://www.w3.org/2000/svg">
<path fill-rule="evenodd" clip-rule="evenodd" d="M2.35702 6.58148C2.26075 6.74003 2.18081 6.88132 2.11667 7C2.18081 7.11868 2.26075 7.25997 2.35702 7.41852C2.6697 7.93352 3.14858 8.62085 3.80913 9.30586C5.12574 10.6712 7.13149 12 10 12C12.8685 12 14.8743 10.6712 16.1909 9.30586C16.8514 8.62085 17.3303 7.93352 17.643 7.41852C17.7392 7.25997 17.8192 7.11868 17.8833 7C17.8192 6.88132 17.7392 6.74003 17.643 6.58148C17.3303 6.06648 16.8514 5.37915 16.1909 4.69414C14.8743 3.32877 12.8685 2 10 2C7.13149 2 5.12574 3.32877 3.80913 4.69414C3.14858 5.37915 2.6697 6.06648 2.35702 6.58148ZM19.9188 7.3948C19.919 7.39435 19.9191 7.39392 19 7L19.9191 7.39392C20.027 7.14237 20.027 6.85763 19.9191 6.60608L19 7C19.9191 6.60608 19.919 6.60565 19.9188 6.6052L19.9183 6.60418L19.9173 6.60172L19.9144 6.59516L19.9058 6.57558C19.8987 6.5597 19.889 6.53821 19.8766 6.51151C19.8518 6.4581 19.8162 6.38371 19.7696 6.29133C19.6763 6.10672 19.5383 5.84937 19.3526 5.54352C18.9822 4.93352 18.4164 4.12085 17.6306 3.30586C16.0543 1.67123 13.5601 0 10 0C6.43994 0 3.94569 1.67123 2.36944 3.30586C1.58356 4.12085 1.0178 4.93352 0.647445 5.54352C0.461748 5.84937 0.323696 6.10672 0.230449 6.29133C0.183788 6.38371 0.148232 6.4581 0.123439 6.51151C0.111039 6.53821 0.10132 6.5597 0.0942391 6.57558L0.0855879 6.59516L0.0827339 6.60172L0.0816728 6.60418L0.0812335 6.6052C0.0810393 6.60565 0.0808549 6.60608 0.999965 6.99999L0.080855 6.60608C-0.0269517 6.85763 -0.0269517 7.14237 0.080855 7.39392L0.999965 7.00001C0.0808549 7.39392 0.0810393 7.39435 0.0812335 7.3948L0.0816728 7.39582L0.0827339 7.39828L0.0855879 7.40484L0.0942391 7.42442C0.10132 7.4403 0.111039 7.46179 0.123439 7.48849C0.148232 7.5419 0.183788 7.61629 0.230449 7.70867C0.323696 7.89328 0.461748 8.15063 0.647445 8.45648C1.0178 9.06648 1.58356 9.87915 2.36944 10.6941C3.94569 12.3288 6.43994 14 10 14C13.5601 14 16.0543 12.3288 17.6306 10.6941C18.4164 9.87915 18.9822 9.06648 19.3526 8.45648C19.5383 8.15063 19.6763 7.89328 19.7696 7.70867C19.8162 7.61629 19.8518 7.5419 19.8766 7.48849C19.889 7.46179 19.8987 7.4403 19.9058 7.42442L19.9144 7.40484L19.9173 7.39828L19.9183 7.39582L19.9188 7.3948ZM10 9C8.89543 9 8 8.10457 8 7C8 5.89543 8.89543 5 10 5C11.1046 5 12 5.89543 12 7C12 8.10457 11.1046 9 10 9ZM6 7C6 4.79086 7.79086 3 10 3C12.2091 3 14 4.79086 14 7C14 9.20914 12.2091 11 10 11C7.79086 11 6 9.20914 6 7Z" fill="#3C4858"/>
</svg>
