<svg width="20" height="20" viewBox="0 0 20 20" fill="none" xmlns="http://www.w3.org/2000/svg">
<path fill-rule="evenodd" clip-rule="evenodd" d="M0 10C0 15.5228 4.47715 20 10 20C15.5228 20 20 15.5228 20 10C20 4.47715 15.5228 0 10 0C4.47715 0 0 4.47715 0 10ZM2 10C2 5.58172 5.58172 2 10 2C14.4183 2 18 5.58172 18 10C18 14.4183 14.4183 18 10 18C5.58172 18 2 14.4183 2 10ZM9.99988 3.75C9.31775 3.75 8.77258 4.31742 8.79984 4.999L9.02491 10.6257C9.04584 11.149 9.47616 11.5625 9.99988 11.5625C10.5236 11.5625 10.9539 11.1491 10.9748 10.6258L11.1999 4.999C11.2272 4.31742 10.682 3.75 9.99988 3.75ZM8.5625 14.5312C8.5625 13.7546 9.1921 13.125 9.96875 13.125C10.7454 13.125 11.375 13.7546 11.375 14.5312C11.375 15.3079 10.7454 15.9375 9.96875 15.9375C9.1921 15.9375 8.5625 15.3079 8.5625 14.5312Z" fill="#3C4858"/>
</svg>
