<svg width="538" height="105" viewBox="0 0 538 105" fill="none" xmlns="http://www.w3.org/2000/svg">
<path d="M161.876 74.4896V88.3075H153.585C147.677 88.3075 143.071 86.878 139.767 84.0192C136.464 81.0968 134.812 76.3637 134.812 69.8201V48.6644H128.332V35.1324H134.812V22.1722H151.107V35.1324H161.781V48.6644H151.107V70.0107C151.107 71.5989 151.489 72.7425 152.251 73.4413C153.013 74.1402 154.284 74.4896 156.063 74.4896H161.876Z" fill="#0FBE7B"/>
<path d="M187.248 43.9949C189.154 41.0725 191.537 38.7854 194.396 37.1336C197.254 35.4183 200.431 34.5606 203.925 34.5606V51.8092H199.446C195.38 51.8092 192.331 52.6986 190.298 54.4775C188.265 56.1928 187.248 59.2423 187.248 63.6259V88.3075H170.953V35.1324H187.248V43.9949Z" fill="#0FBE7B"/>
<path d="M264.222 35.1324V88.3075H247.926V81.065C246.275 83.4156 244.019 85.3215 241.16 86.7827C238.365 88.1804 235.252 88.8793 231.821 88.8793C227.756 88.8793 224.166 87.9898 221.053 86.211C217.94 84.3686 215.526 81.7321 213.811 78.3014C212.095 74.8708 211.238 70.8366 211.238 66.1988V35.1324H227.438V64.007C227.438 67.5648 228.359 70.3283 230.201 72.2978C232.044 74.2672 234.522 75.252 237.635 75.252C240.811 75.252 243.321 74.2672 245.163 72.2978C247.005 70.3283 247.926 67.5648 247.926 64.007V35.1324H264.222Z" fill="#0FBE7B"/>
<path d="M324.053 60.8623C324.053 62.387 323.957 63.9753 323.767 65.6271H286.887C287.141 68.9307 288.19 71.4719 290.032 73.2507C291.938 74.9661 294.257 75.8237 296.989 75.8237C301.055 75.8237 303.882 74.1084 305.47 70.6778H322.814C321.924 74.1719 320.304 77.3167 317.954 80.112C315.667 82.9074 312.776 85.0992 309.282 86.6874C305.788 88.2757 301.881 89.0698 297.56 89.0698C292.351 89.0698 287.713 87.9581 283.647 85.7345C279.581 83.5109 276.405 80.3344 274.118 76.2049C271.831 72.0754 270.687 67.2471 270.687 61.7199C270.687 56.1928 271.799 51.3645 274.022 47.235C276.309 43.1055 279.486 39.929 283.552 37.7054C287.618 35.4818 292.287 34.37 297.56 34.37C302.706 34.37 307.281 35.4501 311.283 37.6101C315.285 39.7701 318.398 42.8514 320.622 46.8538C322.909 50.8562 324.053 55.5257 324.053 60.8623ZM307.376 56.574C307.376 53.7786 306.423 51.5551 304.517 49.9033C302.611 48.2515 300.229 47.4256 297.37 47.4256C294.638 47.4256 292.319 48.2197 290.413 49.808C288.571 51.3962 287.427 53.6516 286.983 56.574H307.376Z" fill="#0FBE7B"/>
<path d="M346.945 42.6608C348.533 40.1831 350.725 38.1819 353.52 36.6571C356.316 35.1324 359.588 34.37 363.336 34.37C367.719 34.37 371.69 35.4818 375.248 37.7054C378.806 39.929 381.601 43.1055 383.634 47.235C385.73 51.3645 386.779 56.161 386.779 61.6247C386.779 67.0883 385.73 71.9166 383.634 76.1096C381.601 80.2391 378.806 83.4474 375.248 85.7345C371.69 87.9581 367.719 89.0698 363.336 89.0698C359.651 89.0698 356.379 88.3075 353.52 86.7827C350.725 85.258 348.533 83.2886 346.945 80.8744V105H330.649V35.1324H346.945V42.6608ZM370.197 61.6247C370.197 57.5587 369.054 54.3822 366.767 52.0951C364.543 49.7444 361.779 48.5691 358.476 48.5691C355.236 48.5691 352.472 49.7444 350.185 52.0951C347.961 54.4457 346.85 57.654 346.85 61.7199C346.85 65.7859 347.961 68.9942 350.185 71.3448C352.472 73.6955 355.236 74.8708 358.476 74.8708C361.716 74.8708 364.479 73.6955 366.767 71.3448C369.054 68.9307 370.197 65.6906 370.197 61.6247Z" fill="#0FBE7B"/>
<path d="M409.623 17.7886V88.3075H393.328V17.7886H409.623Z" fill="#0FBE7B"/>
<path d="M418.192 61.6247C418.192 56.161 419.209 51.3645 421.242 47.235C423.338 43.1055 426.166 39.929 429.723 37.7054C433.281 35.4818 437.252 34.37 441.635 34.37C445.384 34.37 448.655 35.1324 451.451 36.6571C454.31 38.1819 456.501 40.1831 458.026 42.6608V35.1324H474.322V88.3075H458.026V80.7791C456.438 83.2568 454.214 85.258 451.355 86.7827C448.56 88.3075 445.288 89.0698 441.54 89.0698C437.22 89.0698 433.281 87.9581 429.723 85.7345C426.166 83.4474 423.338 80.2391 421.242 76.1096C419.209 71.9166 418.192 67.0883 418.192 61.6247ZM458.026 61.7199C458.026 57.654 456.883 54.4457 454.595 52.0951C452.372 49.7444 449.64 48.5691 446.4 48.5691C443.16 48.5691 440.396 49.7444 438.109 52.0951C435.886 54.3822 434.774 57.5587 434.774 61.6247C434.774 65.6906 435.886 68.9307 438.109 71.3448C440.396 73.6955 443.16 74.8708 446.4 74.8708C449.64 74.8708 452.372 73.6955 454.595 71.3448C456.883 68.9942 458.026 65.7859 458.026 61.7199Z" fill="#0FBE7B"/>
<path d="M517.511 34.5606C523.737 34.5606 528.693 36.5936 532.378 40.6596C536.126 44.662 538 50.1892 538 57.241V88.3075H521.8V59.4328C521.8 55.8751 520.879 53.1116 519.036 51.1421C517.194 49.1727 514.716 48.1879 511.603 48.1879C508.49 48.1879 506.012 49.1727 504.17 51.1421C502.328 53.1116 501.406 55.8751 501.406 59.4328V88.3075H485.111V35.1324H501.406V42.1843C503.058 39.8337 505.282 37.9913 508.077 36.6571C510.872 35.2595 514.017 34.5606 517.511 34.5606Z" fill="#0FBE7B"/>
<path fill-rule="evenodd" clip-rule="evenodd" d="M0 25.4122C0 11.3774 11.3774 0 25.4122 0H80.0485C94.0833 0 105.461 11.3774 105.461 25.4122V80.0485C105.461 94.0833 94.0833 105.461 80.0485 105.461H25.4122C11.3774 105.461 0 94.0833 0 80.0485V25.4122ZM61.2225 42.9502V53.2089C61.2225 70.5052 47.0753 84.5266 29.6238 84.5266V72.4036C40.3199 72.4036 48.9907 63.8098 48.9907 53.2089V42.9375L38.1877 53.7178L29.6238 45.172L55.1003 19.7492L80.5767 45.172L72.0128 53.7178L61.2225 42.9502Z" fill="#0FBE7B"/>
</svg>
